<svg xmlns="http://www.w3.org/2000/svg" version="1.1" viewBox="1.7534210681915283 1.9270588159561157 625.9765625 786.4852905273438" width="629.00" height="790.00">
<path fill="#5d5a35" d="&#10;  M 46.58 180.25&#10;  Q 46.06 180.91 46.12 181.65&#10;  Q 46.28 183.58 46.28 185.11&#10;  Q 46.65 443.55 46.38 772.97&#10;  Q 46.38 776.84 46.16 780.70&#10;  Q 46.11 781.58 45.23 781.59&#10;  L 4.01 781.76&#10;  Q 1.89 781.77 1.90 779.65&#10;  Q 2.32 708.82 2.04 647.50&#10;  Q 1.71 577.14 1.76 505.25&#10;  Q 1.82 414.23 2.02 316.50&#10;  Q 2.03 314.52 2.03 312.50&#10;  Q 2.34 202.80 2.09 114.00&#10;  Q 2.04 97.51 9.34 82.28&#10;  C 13.01 74.64 17.13 67.63 22.98 61.10&#10;  Q 36.12 46.45 54.41 38.13&#10;  Q 58.73 36.17 62.77 35.15&#10;  C 66.54 34.20 70.23 32.84 74.06 32.24&#10;  Q 84.48 30.60 94.56 31.58&#10;  Q 109.22 33.01 120.88 38.39&#10;  Q 131.42 43.26 139.65 50.16&#10;  C 146.53 55.93 152.39 63.03 157.74 70.41&#10;  C 163.08 77.76 169.26 84.73 174.68 92.08&#10;  C 180.56 100.04 186.97 107.68 192.97 115.75&#10;  Q 195.15 118.68 197.40 121.37&#10;  C 199.42 123.79 201.02 126.52 203.03 129.08&#10;  Q 219.75 150.29 235.03 170.50&#10;  Q 249.41 189.51 264.28 208.66&#10;  Q 270.81 217.06 276.48 224.06&#10;  Q 278.98 227.14 281.52 230.89&#10;  C 284.34 235.03 287.59 238.64 290.55 242.62&#10;  Q 294.26 247.62 294.31 247.69&#10;  Q 303.59 259.33 312.28 270.72&#10;  Q 317.80 277.96 322.61 283.90&#10;  Q 327.10 289.44 332.92 297.10&#10;  Q 340.52 307.10 348.91 318.06&#10;  Q 352.72 323.05 356.99 328.50&#10;  C 365.07 338.83 373.02 349.38 381.15 359.53&#10;  C 382.80 361.60 384.09 363.97 385.76 366.01&#10;  Q 397.62 380.51 406.81 392.69&#10;  C 414.20 402.47 421.48 411.38 428.67 420.94&#10;  C 432.76 426.37 437.12 431.63 441.10 436.98&#10;  C 449.61 448.39 458.80 459.55 467.25 470.70&#10;  C 474.62 480.44 482.63 490.19 489.95 500.24&#10;  C 492.80 504.16 495.77 508.20 498.94 512.01&#10;  Q 503.03 516.93 508.15 523.61&#10;  Q 519.64 538.61 531.51 554.00&#10;  Q 544.18 570.42 556.61 586.06&#10;  C 565.34 597.06 573.18 608.15 581.78 619.27&#10;  Q 582.01 619.58 582.38 619.47&#10;  Q 582.70 619.37 582.70 619.03&#10;  Q 581.93 515.54 582.06 420.50&#10;  Q 582.37 199.48 582.18 6.48&#10;  Q 582.18 4.48 582.41 2.59&#10;  A 0.61 0.59 2.7 0 1 583.00 2.07&#10;  Q 601.48 1.80 618.95 2.04&#10;  Q 622.92 2.10 626.46 2.43&#10;  A 1.21 1.20 -87.4 0 1 627.55 3.63&#10;  Q 627.65 365.87 627.73 724.25&#10;  Q 627.73 727.55 626.93 731.49&#10;  C 624.82 741.90 620.95 753.59 613.32 761.27&#10;  C 609.74 764.88 606.49 768.76 602.47 771.93&#10;  C 596.42 776.69 590.86 780.53 583.41 782.90&#10;  Q 577.33 784.83 570.89 786.60&#10;  Q 567.57 787.52 563.82 787.72&#10;  C 560.54 787.89 557.45 788.38 554.05 788.41&#10;  C 537.25 788.54 518.91 783.38 506.22 772.06&#10;  Q 499.97 766.49 495.17 759.95&#10;  C 489.68 752.48 483.87 745.57 478.59 738.19&#10;  Q 475.45 733.80 470.88 728.27&#10;  Q 466.56 723.04 463.04 718.44&#10;  Q 442.14 691.15 425.37 669.83&#10;  Q 413.31 654.51 400.32 637.60&#10;  Q 369.08 596.93 339.28 557.89&#10;  C 332.88 549.51 326.36 541.47 320.26 533.12&#10;  C 315.13 526.10 308.90 518.96 304.13 512.59&#10;  Q 279.87 480.12 262.54 458.21&#10;  Q 251.50 444.25 242.53 432.01&#10;  Q 240.89 429.77 239.10 427.57&#10;  C 235.95 423.69 233.18 419.48 230.05 415.65&#10;  C 225.88 410.54 222.38 405.21 218.25 400.18&#10;  Q 214.79 395.95 211.90 392.01&#10;  Q 204.13 381.41 195.66 371.16&#10;  Q 192.96 367.89 190.60 364.51&#10;  C 188.40 361.36 185.79 358.68 183.57 355.67&#10;  C 178.56 348.86 173.28 342.32 168.32 335.49&#10;  C 165.40 331.46 162.14 327.94 158.90 323.54&#10;  Q 153.29 315.94 146.50 307.28&#10;  Q 134.71 292.25 123.21 277.29&#10;  C 121.55 275.12 120.17 272.92 118.49 270.75&#10;  Q 109.04 258.57 98.67 245.56&#10;  C 96.58 242.94 94.89 240.17 92.66 237.57&#10;  C 88.02 232.13 84.01 226.47 79.58 220.79&#10;  Q 65.48 202.69 53.62 187.10&#10;  C 51.65 184.51 49.08 182.86 47.33 180.27&#10;  Q 46.97 179.75 46.58 180.25&#10;  Z&#10;  M 63.90 84.67&#10;  C 57.49 89.70 49.92 97.83 51.39 106.83&#10;  Q 51.87 109.73 55.10 114.01&#10;  C 58.68 118.74 61.85 123.48 65.63 128.21&#10;  Q 81.63 148.21 96.13 167.85&#10;  Q 98.27 170.75 103.59 177.43&#10;  C 107.84 182.78 111.49 188.27 116.32 193.97&#10;  C 121.54 200.11 125.93 206.63 131.04 213.19&#10;  Q 145.15 231.31 160.63 251.38&#10;  Q 177.22 272.89 192.61 293.08&#10;  Q 206.29 311.04 218.93 327.07&#10;  C 222.42 331.50 225.20 336.50 229.16 340.82&#10;  C 233.38 345.43 236.81 350.81 240.83 355.80&#10;  Q 253.64 371.69 267.26 389.68&#10;  Q 273.44 397.84 279.53 405.91&#10;  Q 281.37 408.36 283.28 410.73&#10;  Q 286.64 414.91 289.81 419.21&#10;  Q 293.13 423.73 296.22 427.77&#10;  Q 318.34 456.66 338.14 482.62&#10;  Q 344.96 491.56 351.65 500.04&#10;  Q 357.36 507.29 363.86 515.87&#10;  C 370.24 524.31 376.80 532.33 382.97 540.70&#10;  Q 387.98 547.48 393.09 553.88&#10;  C 398.29 560.39 403.03 567.15 408.19 573.69&#10;  C 417.07 584.96 425.20 595.92 433.82 606.74&#10;  Q 437.01 610.75 440.58 615.80&#10;  Q 445.10 622.17 447.46 624.78&#10;  Q 450.71 628.37 457.77 637.46&#10;  Q 469.88 653.04 481.99 668.62&#10;  C 488.54 677.04 495.10 686.43 502.26 694.91&#10;  C 506.14 699.50 509.90 705.35 513.12 709.28&#10;  Q 519.53 717.10 527.31 727.98&#10;  Q 531.35 733.64 535.63 737.35&#10;  C 545.58 745.97 558.49 744.67 569.84 739.44&#10;  Q 574.72 737.18 579.14 732.52&#10;  Q 582.60 728.86 584.35 721.93&#10;  Q 586.29 714.23 586.34 708.67&#10;  Q 586.42 696.80 577.91 686.35&#10;  C 574.02 681.57 569.87 676.96 566.07 672.14&#10;  C 547.05 647.97 529.29 625.10 511.39 601.82&#10;  Q 490.34 574.45 470.98 549.82&#10;  C 460.14 536.04 449.75 521.83 438.99 508.25&#10;  Q 434.49 502.57 431.82 498.99&#10;  C 425.33 490.30 418.27 482.07 411.81 473.36&#10;  Q 402.29 460.53 386.51 440.28&#10;  Q 363.81 411.16 344.63 386.80&#10;  Q 342.82 384.50 341.22 382.34&#10;  Q 331.65 369.44 321.53 356.82&#10;  C 319.52 354.31 317.76 351.56 315.79 349.12&#10;  Q 306.27 337.27 296.57 324.24&#10;  Q 290.85 316.55 286.03 310.43&#10;  C 278.27 300.56 270.94 290.86 263.04 280.95&#10;  Q 251.94 267.02 240.44 251.71&#10;  Q 236.41 246.34 231.99 240.82&#10;  C 227.02 234.62 222.57 227.97 217.51 221.94&#10;  Q 214.74 218.64 211.36 214.08&#10;  Q 205.07 205.60 198.40 197.05&#10;  C 194.12 191.56 190.11 185.59 185.57 180.04&#10;  Q 182.15 175.85 179.32 172.09&#10;  Q 176.19 167.92 173.19 164.01&#10;  Q 154.02 139.08 134.23 113.23&#10;  Q 126.07 102.57 119.20 94.20&#10;  C 113.61 87.39 105.46 80.29 96.52 78.37&#10;  C 85.81 76.08 72.63 77.82 63.90 84.67&#10;  Z"/>
</svg>